<?xml version="1.0" standalone="no"?>
<!DOCTYPE svg PUBLIC "-//W3C//DTD SVG 20010904//EN"
 "http://www.w3.org/TR/2001/REC-SVG-20010904/DTD/svg10.dtd">
<svg version="1.0" xmlns="http://www.w3.org/2000/svg"
 width="640.000000pt" height="640.000000pt" viewBox="0 0 640.000000 640.000000"
 preserveAspectRatio="xMidYMid meet">
<metadata>
Created by potrace 1.14, written by Peter Selinger 2001-2017
</metadata>
<g transform="translate(0.000000,640.000000) scale(0.100000,-0.100000)"
fill="#000000" stroke="none">
<path d="M3200 6150 l0 -250 1350 0 1350 0 0 -1350 0 -1350 250 0 250 0 0
1600 0 1600 -1600 0 -1600 0 0 -250z"/>
<path d="M1000 3200 l0 -1600 2200 0 2200 0 0 1600 0 1600 -2200 0 -2200 0 0
-1600z"/>
<path d="M0 1600 l0 -1600 1600 0 1600 0 0 250 0 250 -1350 0 -1350 0 0 1350
0 1350 -250 0 -250 0 0 -1600z"/>
</g>
</svg>
